<mxfile host="app.diagrams.net" modified="2023-12-05T08:51:59.037Z" agent="Mozilla/5.0 (Windows NT 10.0; Win64; x64) AppleWebKit/537.36 (KHTML, like Gecko) Chrome/119.0.0.0 Safari/537.36" etag="f85VQEhqoyJiP1fbLh_6" version="22.1.5" type="github">
  <diagram id="R2lEEEUBdFMjLlhIrx00" name="Page-1">
    <mxGraphModel dx="905" dy="1078" grid="1" gridSize="10" guides="1" tooltips="1" connect="1" arrows="1" fold="1" page="1" pageScale="1" pageWidth="850" pageHeight="1100" math="0" shadow="0" extFonts="Permanent Marker^https://fonts.googleapis.com/css?family=Permanent+Marker">
      <root>
        <mxCell id="0" />
        <mxCell id="1" parent="0" />
        <mxCell id="n45g9Vmdq9arjrL9hO6H-1" value="Art_Object" style="text;html=1;strokeColor=none;fillColor=none;align=center;verticalAlign=middle;whiteSpace=wrap;rounded=0;" vertex="1" parent="1">
          <mxGeometry x="50" y="50" width="60" height="30" as="geometry" />
        </mxCell>
        <mxCell id="n45g9Vmdq9arjrL9hO6H-2" value="&lt;u&gt;ID_number&lt;/u&gt;" style="rounded=0;whiteSpace=wrap;html=1;" vertex="1" parent="1">
          <mxGeometry x="40" y="90" width="120" height="60" as="geometry" />
        </mxCell>
        <mxCell id="n45g9Vmdq9arjrL9hO6H-3" value="Year" style="rounded=0;whiteSpace=wrap;html=1;" vertex="1" parent="1">
          <mxGeometry x="160" y="90" width="120" height="60" as="geometry" />
        </mxCell>
        <mxCell id="n45g9Vmdq9arjrL9hO6H-4" value="Title" style="rounded=0;whiteSpace=wrap;html=1;" vertex="1" parent="1">
          <mxGeometry x="280" y="90" width="120" height="60" as="geometry" />
        </mxCell>
        <mxCell id="n45g9Vmdq9arjrL9hO6H-5" value="Culture" style="rounded=0;whiteSpace=wrap;html=1;" vertex="1" parent="1">
          <mxGeometry x="400" y="90" width="120" height="60" as="geometry" />
        </mxCell>
        <mxCell id="n45g9Vmdq9arjrL9hO6H-16" value="Painting" style="text;html=1;strokeColor=none;fillColor=none;align=center;verticalAlign=middle;whiteSpace=wrap;rounded=0;" vertex="1" parent="1">
          <mxGeometry x="50" y="230" width="60" height="30" as="geometry" />
        </mxCell>
        <mxCell id="n45g9Vmdq9arjrL9hO6H-17" value="&lt;u&gt;ID_number&lt;/u&gt;" style="rounded=0;whiteSpace=wrap;html=1;" vertex="1" parent="1">
          <mxGeometry x="40" y="270" width="120" height="60" as="geometry" />
        </mxCell>
        <mxCell id="n45g9Vmdq9arjrL9hO6H-18" value="Drawn_on" style="rounded=0;whiteSpace=wrap;html=1;" vertex="1" parent="1">
          <mxGeometry x="160" y="270" width="120" height="60" as="geometry" />
        </mxCell>
        <mxCell id="n45g9Vmdq9arjrL9hO6H-19" value="Style" style="rounded=0;whiteSpace=wrap;html=1;" vertex="1" parent="1">
          <mxGeometry x="280" y="270" width="120" height="60" as="geometry" />
        </mxCell>
        <mxCell id="n45g9Vmdq9arjrL9hO6H-20" value="Paint_type" style="rounded=0;whiteSpace=wrap;html=1;" vertex="1" parent="1">
          <mxGeometry x="400" y="270" width="120" height="60" as="geometry" />
        </mxCell>
        <mxCell id="n45g9Vmdq9arjrL9hO6H-21" value="Sculpture" style="text;html=1;strokeColor=none;fillColor=none;align=center;verticalAlign=middle;whiteSpace=wrap;rounded=0;" vertex="1" parent="1">
          <mxGeometry x="50" y="420" width="60" height="30" as="geometry" />
        </mxCell>
        <mxCell id="n45g9Vmdq9arjrL9hO6H-22" value="&lt;u&gt;ID_number&lt;/u&gt;" style="rounded=0;whiteSpace=wrap;html=1;" vertex="1" parent="1">
          <mxGeometry x="40" y="460" width="120" height="60" as="geometry" />
        </mxCell>
        <mxCell id="n45g9Vmdq9arjrL9hO6H-23" value="Height" style="rounded=0;whiteSpace=wrap;html=1;" vertex="1" parent="1">
          <mxGeometry x="160" y="460" width="120" height="60" as="geometry" />
        </mxCell>
        <mxCell id="n45g9Vmdq9arjrL9hO6H-24" value="Material" style="rounded=0;whiteSpace=wrap;html=1;" vertex="1" parent="1">
          <mxGeometry x="280" y="460" width="120" height="60" as="geometry" />
        </mxCell>
        <mxCell id="n45g9Vmdq9arjrL9hO6H-25" value="Style" style="rounded=0;whiteSpace=wrap;html=1;" vertex="1" parent="1">
          <mxGeometry x="400" y="460" width="120" height="60" as="geometry" />
        </mxCell>
        <mxCell id="n45g9Vmdq9arjrL9hO6H-26" value="Other" style="text;html=1;strokeColor=none;fillColor=none;align=center;verticalAlign=middle;whiteSpace=wrap;rounded=0;" vertex="1" parent="1">
          <mxGeometry x="50" y="610" width="60" height="30" as="geometry" />
        </mxCell>
        <mxCell id="n45g9Vmdq9arjrL9hO6H-27" value="&lt;u&gt;ID_number&lt;/u&gt;" style="rounded=0;whiteSpace=wrap;html=1;" vertex="1" parent="1">
          <mxGeometry x="40" y="650" width="120" height="60" as="geometry" />
        </mxCell>
        <mxCell id="n45g9Vmdq9arjrL9hO6H-28" value="Style" style="rounded=0;whiteSpace=wrap;html=1;" vertex="1" parent="1">
          <mxGeometry x="160" y="650" width="120" height="60" as="geometry" />
        </mxCell>
        <mxCell id="n45g9Vmdq9arjrL9hO6H-29" value="Type" style="rounded=0;whiteSpace=wrap;html=1;" vertex="1" parent="1">
          <mxGeometry x="280" y="650" width="120" height="60" as="geometry" />
        </mxCell>
        <mxCell id="n45g9Vmdq9arjrL9hO6H-31" value="Permanent_Collection" style="text;html=1;strokeColor=none;fillColor=none;align=center;verticalAlign=middle;whiteSpace=wrap;rounded=0;" vertex="1" parent="1">
          <mxGeometry x="70" y="810" width="60" height="30" as="geometry" />
        </mxCell>
        <mxCell id="n45g9Vmdq9arjrL9hO6H-32" value="&lt;u&gt;ID_number&lt;/u&gt;" style="rounded=0;whiteSpace=wrap;html=1;" vertex="1" parent="1">
          <mxGeometry x="40" y="850" width="120" height="60" as="geometry" />
        </mxCell>
        <mxCell id="n45g9Vmdq9arjrL9hO6H-33" value="Status" style="rounded=0;whiteSpace=wrap;html=1;" vertex="1" parent="1">
          <mxGeometry x="160" y="850" width="120" height="60" as="geometry" />
        </mxCell>
        <mxCell id="n45g9Vmdq9arjrL9hO6H-34" value="Date_retrieved" style="rounded=0;whiteSpace=wrap;html=1;" vertex="1" parent="1">
          <mxGeometry x="280" y="850" width="120" height="60" as="geometry" />
        </mxCell>
        <mxCell id="n45g9Vmdq9arjrL9hO6H-35" value="Cost" style="rounded=0;whiteSpace=wrap;html=1;" vertex="1" parent="1">
          <mxGeometry x="400" y="850" width="120" height="60" as="geometry" />
        </mxCell>
        <mxCell id="n45g9Vmdq9arjrL9hO6H-36" value="Borrowed" style="text;html=1;strokeColor=none;fillColor=none;align=center;verticalAlign=middle;whiteSpace=wrap;rounded=0;" vertex="1" parent="1">
          <mxGeometry x="50" y="1020" width="60" height="30" as="geometry" />
        </mxCell>
        <mxCell id="n45g9Vmdq9arjrL9hO6H-37" value="&lt;u&gt;ID_number&lt;/u&gt;" style="rounded=0;whiteSpace=wrap;html=1;" vertex="1" parent="1">
          <mxGeometry x="40" y="1060" width="120" height="60" as="geometry" />
        </mxCell>
        <mxCell id="n45g9Vmdq9arjrL9hO6H-38" value="Date_borrowed" style="rounded=0;whiteSpace=wrap;html=1;" vertex="1" parent="1">
          <mxGeometry x="160" y="1060" width="120" height="60" as="geometry" />
        </mxCell>
        <mxCell id="n45g9Vmdq9arjrL9hO6H-39" value="Collection" style="rounded=0;whiteSpace=wrap;html=1;" vertex="1" parent="1">
          <mxGeometry x="280" y="1060" width="120" height="60" as="geometry" />
        </mxCell>
        <mxCell id="n45g9Vmdq9arjrL9hO6H-40" value="Date_returned" style="rounded=0;whiteSpace=wrap;html=1;" vertex="1" parent="1">
          <mxGeometry x="400" y="1060" width="120" height="60" as="geometry" />
        </mxCell>
        <mxCell id="n45g9Vmdq9arjrL9hO6H-41" value="Artist" style="text;html=1;strokeColor=none;fillColor=none;align=center;verticalAlign=middle;whiteSpace=wrap;rounded=0;" vertex="1" parent="1">
          <mxGeometry x="50" y="1240" width="60" height="30" as="geometry" />
        </mxCell>
        <mxCell id="n45g9Vmdq9arjrL9hO6H-42" value="&lt;u&gt;Name&lt;/u&gt;" style="rounded=0;whiteSpace=wrap;html=1;" vertex="1" parent="1">
          <mxGeometry x="40" y="1280" width="120" height="60" as="geometry" />
        </mxCell>
        <mxCell id="n45g9Vmdq9arjrL9hO6H-43" value="Birth_country" style="rounded=0;whiteSpace=wrap;html=1;" vertex="1" parent="1">
          <mxGeometry x="160" y="1280" width="120" height="60" as="geometry" />
        </mxCell>
        <mxCell id="n45g9Vmdq9arjrL9hO6H-44" value="Epoch" style="rounded=0;whiteSpace=wrap;html=1;" vertex="1" parent="1">
          <mxGeometry x="280" y="1280" width="120" height="60" as="geometry" />
        </mxCell>
        <mxCell id="n45g9Vmdq9arjrL9hO6H-45" value="Description" style="rounded=0;whiteSpace=wrap;html=1;" vertex="1" parent="1">
          <mxGeometry x="400" y="1280" width="120" height="60" as="geometry" />
        </mxCell>
        <mxCell id="n45g9Vmdq9arjrL9hO6H-46" value="Exhibition" style="text;html=1;strokeColor=none;fillColor=none;align=center;verticalAlign=middle;whiteSpace=wrap;rounded=0;" vertex="1" parent="1">
          <mxGeometry x="50" y="1460" width="60" height="30" as="geometry" />
        </mxCell>
        <mxCell id="n45g9Vmdq9arjrL9hO6H-47" value="&lt;u&gt;Name&lt;/u&gt;" style="rounded=0;whiteSpace=wrap;html=1;" vertex="1" parent="1">
          <mxGeometry x="40" y="1500" width="120" height="60" as="geometry" />
        </mxCell>
        <mxCell id="n45g9Vmdq9arjrL9hO6H-48" value="Start_date" style="rounded=0;whiteSpace=wrap;html=1;" vertex="1" parent="1">
          <mxGeometry x="160" y="1500" width="120" height="60" as="geometry" />
        </mxCell>
        <mxCell id="n45g9Vmdq9arjrL9hO6H-49" value="End_date" style="rounded=0;whiteSpace=wrap;html=1;" vertex="1" parent="1">
          <mxGeometry x="280" y="1500" width="120" height="60" as="geometry" />
        </mxCell>
        <mxCell id="n45g9Vmdq9arjrL9hO6H-51" value="Collection" style="text;html=1;strokeColor=none;fillColor=none;align=center;verticalAlign=middle;whiteSpace=wrap;rounded=0;" vertex="1" parent="1">
          <mxGeometry x="50" y="1680" width="60" height="30" as="geometry" />
        </mxCell>
        <mxCell id="n45g9Vmdq9arjrL9hO6H-52" value="&lt;u&gt;Name&lt;/u&gt;" style="rounded=0;whiteSpace=wrap;html=1;" vertex="1" parent="1">
          <mxGeometry x="40" y="1720" width="120" height="60" as="geometry" />
        </mxCell>
        <mxCell id="n45g9Vmdq9arjrL9hO6H-53" value="Phone_number" style="rounded=0;whiteSpace=wrap;html=1;" vertex="1" parent="1">
          <mxGeometry x="160" y="1720" width="120" height="60" as="geometry" />
        </mxCell>
        <mxCell id="n45g9Vmdq9arjrL9hO6H-54" value="Description" style="rounded=0;whiteSpace=wrap;html=1;" vertex="1" parent="1">
          <mxGeometry x="280" y="1720" width="120" height="60" as="geometry" />
        </mxCell>
        <mxCell id="n45g9Vmdq9arjrL9hO6H-55" value="Type" style="rounded=0;whiteSpace=wrap;html=1;" vertex="1" parent="1">
          <mxGeometry x="400" y="1720" width="120" height="60" as="geometry" />
        </mxCell>
        <mxCell id="n45g9Vmdq9arjrL9hO6H-56" value="Epoch" style="rounded=0;whiteSpace=wrap;html=1;" vertex="1" parent="1">
          <mxGeometry x="520" y="90" width="120" height="60" as="geometry" />
        </mxCell>
        <mxCell id="n45g9Vmdq9arjrL9hO6H-57" value="Exhibition" style="rounded=0;whiteSpace=wrap;html=1;" vertex="1" parent="1">
          <mxGeometry x="640" y="90" width="120" height="60" as="geometry" />
        </mxCell>
        <mxCell id="n45g9Vmdq9arjrL9hO6H-58" value="Desciption" style="rounded=0;whiteSpace=wrap;html=1;" vertex="1" parent="1">
          <mxGeometry x="760" y="90" width="120" height="60" as="geometry" />
        </mxCell>
        <mxCell id="n45g9Vmdq9arjrL9hO6H-59" value="Artist" style="rounded=0;whiteSpace=wrap;html=1;" vertex="1" parent="1">
          <mxGeometry x="880" y="90" width="120" height="60" as="geometry" />
        </mxCell>
        <mxCell id="n45g9Vmdq9arjrL9hO6H-61" value="Weight" style="rounded=0;whiteSpace=wrap;html=1;" vertex="1" parent="1">
          <mxGeometry x="520" y="460" width="120" height="60" as="geometry" />
        </mxCell>
        <mxCell id="n45g9Vmdq9arjrL9hO6H-62" value="Main_style" style="rounded=0;whiteSpace=wrap;html=1;" vertex="1" parent="1">
          <mxGeometry x="520" y="1280" width="120" height="60" as="geometry" />
        </mxCell>
        <mxCell id="n45g9Vmdq9arjrL9hO6H-63" value="Date_of_birth" style="rounded=0;whiteSpace=wrap;html=1;" vertex="1" parent="1">
          <mxGeometry x="640" y="1280" width="120" height="60" as="geometry" />
        </mxCell>
        <mxCell id="n45g9Vmdq9arjrL9hO6H-64" value="Date_deceased" style="rounded=0;whiteSpace=wrap;html=1;" vertex="1" parent="1">
          <mxGeometry x="760" y="1280" width="120" height="60" as="geometry" />
        </mxCell>
        <mxCell id="n45g9Vmdq9arjrL9hO6H-65" value="Contact_person" style="rounded=0;whiteSpace=wrap;html=1;" vertex="1" parent="1">
          <mxGeometry x="520" y="1720" width="120" height="60" as="geometry" />
        </mxCell>
        <mxCell id="n45g9Vmdq9arjrL9hO6H-70" value="" style="endArrow=none;html=1;rounded=0;" edge="1" parent="1">
          <mxGeometry width="50" height="50" relative="1" as="geometry">
            <mxPoint y="180" as="sourcePoint" />
            <mxPoint x="120" y="180" as="targetPoint" />
          </mxGeometry>
        </mxCell>
        <mxCell id="n45g9Vmdq9arjrL9hO6H-71" value="" style="endArrow=classic;html=1;rounded=0;" edge="1" parent="1">
          <mxGeometry width="50" height="50" relative="1" as="geometry">
            <mxPoint x="120" y="180" as="sourcePoint" />
            <mxPoint x="120" y="150" as="targetPoint" />
          </mxGeometry>
        </mxCell>
        <mxCell id="n45g9Vmdq9arjrL9hO6H-72" value="" style="endArrow=classic;html=1;rounded=0;" edge="1" parent="1">
          <mxGeometry width="50" height="50" relative="1" as="geometry">
            <mxPoint x="109.13" y="180" as="sourcePoint" />
            <mxPoint x="109.13" y="150" as="targetPoint" />
          </mxGeometry>
        </mxCell>
        <mxCell id="n45g9Vmdq9arjrL9hO6H-73" value="" style="endArrow=classic;html=1;rounded=0;" edge="1" parent="1">
          <mxGeometry width="50" height="50" relative="1" as="geometry">
            <mxPoint x="90" y="180" as="sourcePoint" />
            <mxPoint x="90" y="150" as="targetPoint" />
          </mxGeometry>
        </mxCell>
        <mxCell id="n45g9Vmdq9arjrL9hO6H-74" value="" style="endArrow=classic;html=1;rounded=0;" edge="1" parent="1">
          <mxGeometry width="50" height="50" relative="1" as="geometry">
            <mxPoint x="99.57" y="180" as="sourcePoint" />
            <mxPoint x="99.57" y="150" as="targetPoint" />
          </mxGeometry>
        </mxCell>
        <mxCell id="n45g9Vmdq9arjrL9hO6H-75" value="" style="endArrow=classic;html=1;rounded=0;" edge="1" parent="1">
          <mxGeometry width="50" height="50" relative="1" as="geometry">
            <mxPoint x="79.57" y="180" as="sourcePoint" />
            <mxPoint x="79.57" y="150" as="targetPoint" />
          </mxGeometry>
        </mxCell>
        <mxCell id="n45g9Vmdq9arjrL9hO6H-77" value="" style="endArrow=none;html=1;rounded=0;" edge="1" parent="1">
          <mxGeometry width="50" height="50" relative="1" as="geometry">
            <mxPoint y="1170" as="sourcePoint" />
            <mxPoint y="180" as="targetPoint" />
          </mxGeometry>
        </mxCell>
        <mxCell id="n45g9Vmdq9arjrL9hO6H-82" value="" style="endArrow=none;html=1;rounded=0;" edge="1" parent="1">
          <mxGeometry width="50" height="50" relative="1" as="geometry">
            <mxPoint y="360" as="sourcePoint" />
            <mxPoint x="100" y="360" as="targetPoint" />
          </mxGeometry>
        </mxCell>
        <mxCell id="n45g9Vmdq9arjrL9hO6H-84" value="" style="endArrow=none;html=1;rounded=0;" edge="1" parent="1">
          <mxGeometry width="50" height="50" relative="1" as="geometry">
            <mxPoint y="549" as="sourcePoint" />
            <mxPoint x="100" y="549" as="targetPoint" />
          </mxGeometry>
        </mxCell>
        <mxCell id="n45g9Vmdq9arjrL9hO6H-85" value="" style="endArrow=none;html=1;rounded=0;" edge="1" parent="1">
          <mxGeometry width="50" height="50" relative="1" as="geometry">
            <mxPoint y="750" as="sourcePoint" />
            <mxPoint x="100" y="750" as="targetPoint" />
          </mxGeometry>
        </mxCell>
        <mxCell id="n45g9Vmdq9arjrL9hO6H-86" value="" style="endArrow=none;html=1;rounded=0;" edge="1" parent="1">
          <mxGeometry width="50" height="50" relative="1" as="geometry">
            <mxPoint y="950" as="sourcePoint" />
            <mxPoint x="100" y="950" as="targetPoint" />
          </mxGeometry>
        </mxCell>
        <mxCell id="n45g9Vmdq9arjrL9hO6H-87" value="" style="endArrow=none;html=1;rounded=0;" edge="1" parent="1">
          <mxGeometry width="50" height="50" relative="1" as="geometry">
            <mxPoint y="1170" as="sourcePoint" />
            <mxPoint x="100" y="1170" as="targetPoint" />
          </mxGeometry>
        </mxCell>
        <mxCell id="n45g9Vmdq9arjrL9hO6H-88" value="" style="endArrow=none;html=1;rounded=0;exitX=0.5;exitY=1;exitDx=0;exitDy=0;" edge="1" parent="1" source="n45g9Vmdq9arjrL9hO6H-27">
          <mxGeometry width="50" height="50" relative="1" as="geometry">
            <mxPoint x="20" y="760" as="sourcePoint" />
            <mxPoint x="100" y="750" as="targetPoint" />
          </mxGeometry>
        </mxCell>
        <mxCell id="n45g9Vmdq9arjrL9hO6H-89" value="" style="endArrow=none;html=1;rounded=0;" edge="1" parent="1">
          <mxGeometry width="50" height="50" relative="1" as="geometry">
            <mxPoint x="20" y="750" as="sourcePoint" />
            <mxPoint x="20" y="750" as="targetPoint" />
          </mxGeometry>
        </mxCell>
        <mxCell id="n45g9Vmdq9arjrL9hO6H-90" value="" style="endArrow=none;html=1;rounded=0;entryX=0.5;entryY=1;entryDx=0;entryDy=0;" edge="1" parent="1" target="n45g9Vmdq9arjrL9hO6H-37">
          <mxGeometry width="50" height="50" relative="1" as="geometry">
            <mxPoint x="100" y="1170" as="sourcePoint" />
            <mxPoint x="180" y="1030" as="targetPoint" />
          </mxGeometry>
        </mxCell>
        <mxCell id="n45g9Vmdq9arjrL9hO6H-91" value="" style="endArrow=none;html=1;rounded=0;entryX=0.5;entryY=1;entryDx=0;entryDy=0;" edge="1" parent="1" target="n45g9Vmdq9arjrL9hO6H-32">
          <mxGeometry width="50" height="50" relative="1" as="geometry">
            <mxPoint x="100" y="950" as="sourcePoint" />
            <mxPoint x="150" y="910" as="targetPoint" />
          </mxGeometry>
        </mxCell>
        <mxCell id="n45g9Vmdq9arjrL9hO6H-92" value="" style="endArrow=none;html=1;rounded=0;entryX=0.5;entryY=1;entryDx=0;entryDy=0;" edge="1" parent="1" target="n45g9Vmdq9arjrL9hO6H-22">
          <mxGeometry width="50" height="50" relative="1" as="geometry">
            <mxPoint x="100" y="550" as="sourcePoint" />
            <mxPoint x="150" y="470" as="targetPoint" />
          </mxGeometry>
        </mxCell>
        <mxCell id="n45g9Vmdq9arjrL9hO6H-93" value="" style="endArrow=none;html=1;rounded=0;" edge="1" parent="1">
          <mxGeometry width="50" height="50" relative="1" as="geometry">
            <mxPoint x="100" y="360" as="sourcePoint" />
            <mxPoint x="100" y="330" as="targetPoint" />
          </mxGeometry>
        </mxCell>
        <mxCell id="n45g9Vmdq9arjrL9hO6H-97" value="" style="endArrow=classic;html=1;rounded=0;" edge="1" parent="1">
          <mxGeometry width="50" height="50" relative="1" as="geometry">
            <mxPoint x="99.77" y="1370" as="sourcePoint" />
            <mxPoint x="99.77" y="1340" as="targetPoint" />
          </mxGeometry>
        </mxCell>
        <mxCell id="n45g9Vmdq9arjrL9hO6H-98" value="" style="endArrow=none;html=1;rounded=0;" edge="1" parent="1">
          <mxGeometry width="50" height="50" relative="1" as="geometry">
            <mxPoint x="100" y="1370" as="sourcePoint" />
            <mxPoint x="1000" y="1370" as="targetPoint" />
          </mxGeometry>
        </mxCell>
        <mxCell id="n45g9Vmdq9arjrL9hO6H-99" value="" style="endArrow=none;html=1;rounded=0;" edge="1" parent="1">
          <mxGeometry width="50" height="50" relative="1" as="geometry">
            <mxPoint x="1000" y="1370" as="sourcePoint" />
            <mxPoint x="1000" y="220" as="targetPoint" />
          </mxGeometry>
        </mxCell>
        <mxCell id="n45g9Vmdq9arjrL9hO6H-100" value="" style="endArrow=none;html=1;rounded=0;" edge="1" parent="1">
          <mxGeometry width="50" height="50" relative="1" as="geometry">
            <mxPoint x="940" y="220" as="sourcePoint" />
            <mxPoint x="1000" y="220" as="targetPoint" />
          </mxGeometry>
        </mxCell>
        <mxCell id="n45g9Vmdq9arjrL9hO6H-101" value="" style="endArrow=none;html=1;rounded=0;exitX=0.5;exitY=1;exitDx=0;exitDy=0;" edge="1" parent="1" source="n45g9Vmdq9arjrL9hO6H-59">
          <mxGeometry width="50" height="50" relative="1" as="geometry">
            <mxPoint x="860" y="340" as="sourcePoint" />
            <mxPoint x="940" y="220" as="targetPoint" />
          </mxGeometry>
        </mxCell>
        <mxCell id="n45g9Vmdq9arjrL9hO6H-102" value="" style="endArrow=classic;html=1;rounded=0;" edge="1" parent="1">
          <mxGeometry width="50" height="50" relative="1" as="geometry">
            <mxPoint x="99.5" y="1810" as="sourcePoint" />
            <mxPoint x="99.5" y="1780" as="targetPoint" />
          </mxGeometry>
        </mxCell>
        <mxCell id="n45g9Vmdq9arjrL9hO6H-103" value="" style="endArrow=none;html=1;rounded=0;" edge="1" parent="1">
          <mxGeometry width="50" height="50" relative="1" as="geometry">
            <mxPoint x="100" y="1810" as="sourcePoint" />
            <mxPoint x="950" y="1810" as="targetPoint" />
          </mxGeometry>
        </mxCell>
        <mxCell id="n45g9Vmdq9arjrL9hO6H-104" value="" style="endArrow=none;html=1;rounded=0;" edge="1" parent="1">
          <mxGeometry width="50" height="50" relative="1" as="geometry">
            <mxPoint x="950" y="1810" as="sourcePoint" />
            <mxPoint x="950" y="1140" as="targetPoint" />
          </mxGeometry>
        </mxCell>
        <mxCell id="n45g9Vmdq9arjrL9hO6H-105" value="" style="endArrow=none;html=1;rounded=0;" edge="1" parent="1">
          <mxGeometry width="50" height="50" relative="1" as="geometry">
            <mxPoint x="340" y="1140" as="sourcePoint" />
            <mxPoint x="950" y="1140" as="targetPoint" />
          </mxGeometry>
        </mxCell>
        <mxCell id="n45g9Vmdq9arjrL9hO6H-106" value="" style="endArrow=none;html=1;rounded=0;entryX=0.5;entryY=1;entryDx=0;entryDy=0;" edge="1" parent="1" target="n45g9Vmdq9arjrL9hO6H-39">
          <mxGeometry width="50" height="50" relative="1" as="geometry">
            <mxPoint x="340" y="1140" as="sourcePoint" />
            <mxPoint x="420" y="1140" as="targetPoint" />
          </mxGeometry>
        </mxCell>
      </root>
    </mxGraphModel>
  </diagram>
</mxfile>
